<?xml version="1.0" encoding="UTF-8" standalone="no"?>
<svg
   version="1.1"
   viewBox="-5 -10 512 512"
   id="svg10"
   sodipodi:docname="favicon.svg"
   width="512"
   height="512"
   inkscape:version="1.4 (e7c3feb100, 2024-10-09)"
   xmlns:inkscape="http://www.inkscape.org/namespaces/inkscape"
   xmlns:sodipodi="http://sodipodi.sourceforge.net/DTD/sodipodi-0.dtd"
   xmlns="http://www.w3.org/2000/svg"
   xmlns:svg="http://www.w3.org/2000/svg">
  <defs
     id="defs10" />
  <sodipodi:namedview
     id="namedview10"
     pagecolor="#ffffff"
     bordercolor="#000000"
     borderopacity="0.25"
     inkscape:showpageshadow="2"
     inkscape:pageopacity="0.0"
     inkscape:pagecheckerboard="0"
     inkscape:deskcolor="#d1d1d1"
     inkscape:zoom="0.75092593"
     inkscape:cx="518.69297"
     inkscape:cy="63.25524"
     inkscape:window-width="1920"
     inkscape:window-height="1043"
     inkscape:window-x="0"
     inkscape:window-y="0"
     inkscape:window-maximized="1"
     inkscape:current-layer="svg10" />
  <g
     id="g9"
     transform="matrix(4.9316344,0,0,4.9316344,4.4227924,-0.55943884)">
    <path
       d="m 91,28.75 h -0.69922 v -5.4688 c 0,-1.3711 -0.64062,-2.6602 -1.7305,-3.4883 -1.0898,-0.82812 -2.5,-1.0977 -3.8203,-0.73438 l -4.1719,1.1602 v -6.2188 c 0.0078,-1.5469 -0.85938,-2.9648 -2.2383,-3.6641 -1.3828,-0.69531 -3.0391,-0.55078 -4.2812,0.375 l -3.6289,2.6914 -20.43,15.156 -24.059,-17.867 c -1.2461,-0.92969 -2.9062,-1.0703 -4.2891,-0.37109 -1.3828,0.70313 -2.2461,2.1289 -2.2305,3.6797 v 6.2383 l -4.1719,-1.1602 c -1.3164,-0.36328 -2.7266,-0.09375 -3.8125,0.73047 -1.0898,0.82422 -1.7305,2.1055 -1.7383,3.4727 v 5.4688 H 9.04994 c -2.2188,0 -4.0234,1.7812 -4.0508,4 v 43.391 c 0.03125,2.2148 1.8359,3.9961 4.0508,4 h 32.699 c 0.26562,0.42578 0.57422,0.81641 0.92969,1.168 1.1992,1.2031 2.832,1.8789 4.5312,1.8711 h 3.5781 v 3.332 c 0.0039,1.3398 0.76563,2.5664 1.9648,3.1719 1.1992,0.60156 2.6367,0.47656 3.7148,-0.32422 l 2.5312,-1.8203 2.5117,1.8711 c 1.0781,0.80078 2.5156,0.92578 3.7148,0.32031 1.1992,-0.60156 1.9609,-1.8281 1.9648,-3.1719 v -6.3672 h 23.809 c 2.1953,-0.03516 3.9688,-1.8047 4,-4 v -43.402 c -0.0039,-2.2109 -1.7852,-4.0117 -4,-4.0391 z M 67.172,70.531 85.274,65.4724 85.2701,65.4685 c 1.1367,-0.32812 2.1719,-0.94531 3,-1.7891 v 5.8984 c -0.0039,2.0469 -1.6641,3.707 -3.7109,3.7109 H 67.1722 Z M 85.289,21 c 0.71484,-0.20312 1.4844,-0.05469 2.0703,0.39844 0.59375,0.44922 0.94141,1.1484 0.94141,1.8906 v 35.539 c -0.0078,2.1914 -1.4648,4.1133 -3.5703,4.7109 l -29.73,8.3203 23,-17.121 c 1.6289,-1.207 2.5898,-3.1172 2.5898,-5.1484 v -27.289 z m -73.59,42.68 c 0.83203,0.84375 1.8633,1.4609 3,1.7891 l 28,7.8203 H 15.41 C 13.3631,73.2855 11.7069,71.6253 11.6991,69.5785 Z M 75.25,12.301 c 0.63672,-0.46875 1.4844,-0.53906 2.1914,-0.17969 0.70312,0.35938 1.1445,1.0859 1.1367,1.8789 v 35.59 c 0,1.3945 -0.66016,2.707 -1.7773,3.5391 l -25.801,19.16 v -42 z m -53.828,1.6992 c -0.01953,-0.79297 0.42969,-1.5234 1.1484,-1.8594 0.28906,-0.15234 0.61328,-0.23047 0.94141,-0.23047 0.44531,0.0039 0.87891,0.14453 1.2383,0.41016 l 24.25,18 v 42 l -25.801,-19.191 c -1.1172,-0.83203 -1.7773,-2.1445 -1.7773,-3.5391 z m -9.7188,9.3008 h -0.0039 c 0,-0.74219 0.34766,-1.4414 0.94141,-1.8906 0.58594,-0.45703 1.3555,-0.60547 2.0703,-0.39844 l 4.7109,1.3086 v 27.27 c -0.0039,2.0273 0.95312,3.9375 2.5781,5.1484 l 23,17.121 -29.73,-8.3203 c -2.1055,-0.59766 -3.5625,-2.5195 -3.5703,-4.7109 v -35.547 z m 35.512,58 h -0.0039 c -1.168,0.0039 -2.2891,-0.46094 -3.1094,-1.2891 -0.35156,-0.34766 -0.63672,-0.75 -0.85156,-1.1914 -0.16406,-0.34766 -0.51562,-0.57031 -0.89844,-0.57031 H 9.0509 c -1.1055,0 -2,-0.89453 -2,-2 v -43.461 c 0,-1.1055 0.89453,-2 2,-2 h 0.64844 v 38.789 c 0,3.1562 2.5586,5.7109 5.7109,5.7109 h 35.379 v 5.9414 z m 17.949,5.3281 h -0.0039 c 0,0.58984 -0.33203,1.125 -0.85547,1.3867 -0.52734,0.26172 -1.1562,0.20703 -1.625,-0.14453 l -3.1016,-2.3086 v -0.0039 c -0.35547,-0.26562 -0.84375,-0.26562 -1.1992,0 l -3.1094,2.2422 c -0.47266,0.34375 -1.0938,0.39453 -1.6172,0.13672 -0.52344,-0.26172 -0.85547,-0.79297 -0.86328,-1.3789 v -12 l 12.371,-3.4609 z m 27.836,-10.488 c 0,0.53125 -0.21094,1.0391 -0.58594,1.4141 -0.375,0.375 -0.88281,0.58594 -1.4141,0.58594 h -23.828 v -2.8516 h 17.418 c 3.1523,0 5.7109,-2.5547 5.7109,-5.7109 v -38.828 h 0.69922 c 0.53125,0 1.0391,0.21094 1.4141,0.58594 0.375,0.375 0.58594,0.88281 0.58594,1.4141 z"
       id="path1" />
    <path
       d="m 56.68,36.84 c 0.21484,0.0039 0.42578,-0.0625 0.60156,-0.19141 l 16.219,-12 c 0.21484,-0.15625 0.35938,-0.39453 0.39844,-0.66016 0.04297,-0.26562 -0.02734,-0.53516 -0.1875,-0.75 -0.15234,-0.21875 -0.39063,-0.37109 -0.65625,-0.41406 -0.26563,-0.04687 -0.53516,0.01953 -0.75391,0.17578 l -16.223,12 c -0.21094,0.15625 -0.35547,0.39453 -0.39453,0.65625 -0.03906,0.26172 0.02734,0.53125 0.1875,0.74219 0.17969,0.26953 0.48438,0.43359 0.80859,0.44141 z"
       id="path2" />
    <path
       d="m 56.68,44.141 c 0.21484,0 0.42578,-0.07031 0.60156,-0.19922 l 16.219,-12 c 0.44531,-0.33203 0.53516,-0.96094 0.20312,-1.4062 -0.32812,-0.44531 -0.95703,-0.53516 -1.4023,-0.20703 l -16.219,12 h -0.0039 c -0.35156,0.25781 -0.5,0.71094 -0.35938,1.125 0.13672,0.41406 0.52344,0.69141 0.96094,0.6875 z"
       id="path3" />
    <path
       d="m 56.68,58.719 c 0.21484,0 0.42578,-0.07031 0.60156,-0.19922 l 16.219,-12.051 c 0.44531,-0.33203 0.53516,-0.96094 0.20312,-1.4023 -0.32812,-0.44531 -0.95703,-0.53906 -1.4023,-0.20703 l -16.219,12 h -0.0039 c -0.35156,0.25781 -0.5,0.71094 -0.35938,1.125 0.13672,0.41406 0.52344,0.69141 0.96094,0.6875 z"
       id="path4" />
    <path
       d="m 56.68,51.43 c 0.21484,0 0.42578,-0.07031 0.60156,-0.19922 l 16.219,-12 c 0.44531,-0.33203 0.53516,-0.96094 0.20312,-1.4062 -0.32812,-0.44531 -0.95703,-0.53516 -1.4023,-0.20312 l -16.219,12 h -0.0039 c -0.35156,0.25391 -0.5,0.71094 -0.35938,1.125 0.13672,0.41406 0.52344,0.69141 0.96094,0.68359 z"
       id="path5" />
    <path
       d="m 26.5,24.602 16.219,12 c 0.21484,0.16016 0.48438,0.22656 0.75,0.1875 0.26562,-0.03906 0.50391,-0.18359 0.66016,-0.39844 0.16016,-0.21484 0.22656,-0.48047 0.1875,-0.74609 -0.03906,-0.26172 -0.18359,-0.49609 -0.39453,-0.65625 l -16.223,-11.988 c -0.44531,-0.33203 -1.0742,-0.23828 -1.4023,0.20312 -0.33203,0.44531 -0.24219,1.0742 0.20312,1.4062 z"
       id="path6" />
    <path
       d="m 26.5,31.891 16.219,12 c 0.17578,0.12891 0.38672,0.19922 0.60156,0.19922 0.4375,0.0078 0.82422,-0.26953 0.96094,-0.68359 0.14062,-0.41406 -0.0078,-0.87109 -0.35938,-1.125 l -16.219,-12 h -0.0039 c -0.44531,-0.33203 -1.0742,-0.24219 -1.4023,0.20312 -0.33203,0.44531 -0.24219,1.0742 0.20312,1.4062 z"
       id="path7" />
    <path
       d="M 26.5,46.469 42.719,58.52 c 0.17578,0.12891 0.38672,0.19922 0.60156,0.19922 0.4375,0.0078 0.82422,-0.26953 0.96094,-0.68359 0.14062,-0.41406 -0.0078,-0.87109 -0.35938,-1.125 l -16.219,-12 h -0.0039 c -0.44531,-0.33203 -1.0742,-0.23828 -1.4023,0.20312 -0.33203,0.44531 -0.24219,1.0742 0.20312,1.4062 z"
       id="path8" />
    <path
       d="m 26.5,39.18 16.219,12 c 0.17578,0.12891 0.38672,0.19922 0.60156,0.19922 0.4375,0.0078 0.82422,-0.26953 0.96094,-0.68359 0.14062,-0.41406 -0.0078,-0.87109 -0.35938,-1.125 l -16.219,-12 h -0.0039 c -0.44531,-0.33203 -1.0742,-0.23828 -1.4023,0.20313 -0.33203,0.44531 -0.24219,1.0742 0.20312,1.4062 z"
       id="path9" />
  </g>
  <path
     style="fill:#c8c4b7;stroke-width:2.66338"
     d="m 52.989269,162.23201 c -9.505419,1.71115 -7.929923,13.55426 -8.276241,20.68279 -0.369948,66.39243 -0.926981,132.81597 0.330321,199.19679 -0.500082,6.6412 3.85047,15.02502 11.745915,12.31813 54.420666,0 108.841326,0 163.261986,0 5.96229,9.66766 16.20614,16.82367 27.93947,15.93605 4.51016,0.0808 12.44803,0.24895 11.15549,-6.57002 0.0814,-7.69611 0.39562,-15.66142 -0.13265,-23.18231 -59.76592,-0.44518 -119.57723,0.95296 -179.315079,-0.87652 -11.353801,-1.17183 -22.036642,-11.60101 -21.718967,-23.42269 -2.336706,-53.2315 -0.577482,-106.57448 -1.133028,-159.84845 -0.171627,-11.37984 0.339861,-23.04265 -0.249692,-34.24938 -1.202021,0.0205 -2.406114,-0.0334 -3.607525,0.0156 z"
     id="path10"
     transform="translate(-5,-10)" />
  <path
     style="fill:#ffffff;stroke-width:2.66338"
     d="m 67.479192,326.05059 c -0.564887,11.389 -1.298055,23.70826 2.299245,34.77998 6.45942,11.82944 22.080693,8.7553 33.188013,9.46757 35.17605,-0.0953 70.46606,0.87095 105.57297,-1.03267 -5.69885,-3.2924 -14.55349,-4.42689 -21.33375,-6.87366 -38.01308,-11.36985 -76.90263,-20.28285 -114.19517,-33.79152 -1.815372,-0.80891 -3.575675,-2.19702 -5.531308,-2.5497 z"
     id="path11"
     transform="translate(-5,-10)" />
  <path
     style="fill:#ffffff;stroke-width:2.66338"
     d="m 77.589107,113.25861 c -8.816212,0.27568 -9.706027,10.34001 -9.765037,17.06724 -1.457909,56.99273 -0.982451,114.05664 0.206525,171.05467 0.357072,10.85915 9.526219,19.62996 20.071574,21.02874 45.088871,13.71044 90.625881,26.72908 136.121011,38.53055 -3.32077,-5.6965 -11.15154,-9.1292 -16.15752,-13.77935 -32.0692,-24.62901 -65.61519,-47.49064 -96.34681,-73.76361 -9.60541,-10.56925 -5.33272,-25.81766 -6.7097,-38.65761 -0.51348,-38.32188 0.0887,-76.80916 -0.40652,-115.02766 -9.02646,-1.84789 -17.793917,-5.83355 -27.013523,-6.45297 z"
     id="path12"
     transform="translate(-5,-10)" />
  <path
     style="fill:#ffffff;stroke-width:2.66338"
     d="m 124.74963,69.245241 c -5.75127,0.604754 -11.42902,5.372299 -9.16927,11.751063 0.22424,58.839246 -1.55478,117.733836 0.56011,176.539906 2.95688,13.60601 17.92184,18.66841 27.06781,27.39456 35.31292,26.60386 70.60755,53.27914 106.66812,78.84929 1.79925,-14.46899 0.65238,-30.27767 1.21725,-45.20462 0.2505,-52.92363 0.26219,-105.9124 0.078,-158.79614 -41.05943,-29.86489 -80.82589,-61.612941 -123.14484,-89.683546 -0.99046,-0.624091 -2.09326,-1.026797 -3.27721,-0.850513 z m 18.06884,52.424859 c 13.25307,6.78483 24.8513,17.1818 37.25936,25.57422 15.67859,12.40848 33.2516,22.79542 47.19367,37.20765 3.91468,4.60845 -4.98087,9.95723 -8.05948,4.86031 -27.65858,-19.32328 -55.11909,-39.18533 -80.67472,-61.21782 -1.19561,-2.7306 1.288,-6.49425 4.28117,-6.42436 z m 0,35.95561 c 13.25307,6.78483 24.8513,17.1818 37.25936,25.57422 15.67859,12.40848 33.2516,22.79542 47.19367,37.20765 3.90593,4.6709 -4.97513,9.84208 -8.07824,4.83516 -27.65089,-19.30949 -55.10958,-39.15301 -80.65336,-61.17706 -1.20015,-2.72203 1.26832,-6.51236 4.27857,-6.43997 z m 0,35.95561 c 13.25307,6.78483 24.8513,17.1818 37.25936,25.57422 15.67859,12.40848 33.2516,22.79542 47.19367,37.20766 3.90593,4.6709 -4.97513,9.84207 -8.07824,4.83515 -27.65089,-19.30949 -55.10958,-39.15301 -80.65336,-61.17706 -1.20015,-2.72203 1.26832,-6.51236 4.27857,-6.43997 z m -0.0208,35.93481 c 22.22737,13.5005 42.68023,30.30817 63.83785,45.58435 7.08181,6.45037 17.17648,10.94195 21.57753,19.72824 -0.516,4.87017 -6.93774,5.7041 -9.69897,1.96893 -27.43646,-19.33496 -54.91242,-38.95187 -80.15364,-61.07044 -0.65956,-2.76761 1.39045,-6.23155 4.43723,-6.21108 z"
     id="path13"
     transform="translate(-5,-10)" />
  <path
     style="fill:#ffffff;stroke-width:2.66338"
     d="m 386.81152,69.141203 c -11.7327,4.851194 -21.41706,14.277479 -32.1376,21.114843 -31.22581,22.711534 -62.26595,45.787284 -93.16344,68.880824 0.38179,66.87904 -0.96752,133.79477 0.84791,200.65072 -0.50007,3.4914 1.73473,4.03262 3.83306,1.22599 41.38692,-31.02074 83.92818,-60.61321 123.99611,-93.33364 8.79896,-7.04438 4.5596,-20.00326 6.00208,-29.64818 0.39962,-54.38535 0.25015,-108.81624 0.15959,-163.176258 -2.72504,-2.44047 -5.41827,-6.039863 -9.53771,-5.714299 z m -17.44721,52.586117 c 6.1296,0.0302 6.9265,9.51186 0.73086,10.98644 -26.91529,19.97173 -53.1841,41.23496 -81.69601,58.7998 -5.06241,-0.53495 -6.80068,-8.46136 -1.38631,-10.45324 26.68569,-20.38425 53.47876,-40.92436 81.55816,-59.25757 0.26136,-0.0472 0.52744,-0.0756 0.7933,-0.0754 z m -0.052,35.70072 c 4.59541,0.94758 7.6184,7.65061 2.30395,10.03475 -27.36824,20.44345 -54.18468,42.05834 -83.21708,60.00638 -4.97748,-0.508 -6.89108,-8.4183 -1.41232,-10.3544 26.85968,-20.5148 53.98296,-40.77008 81.96131,-59.72054 z m -0.008,35.95561 c 4.60581,0.93071 7.62534,7.6517 2.31176,10.03475 -27.27197,20.46198 -54.11075,41.80239 -82.93098,60.00379 -5.8856,0.26131 -7.33855,-7.99517 -1.89383,-10.05628 26.893,-20.63094 53.93948,-41.22881 82.14112,-60.01607 z m 0.54621,35.9322 c 5.61172,1.10114 5.75226,9.90564 -0.23149,11.26214 -26.48424,20.00494 -52.65906,40.61953 -80.42415,58.79981 -3.97682,-0.33804 -8.56674,-6.23012 -3.70636,-8.93949 26.79347,-21.20779 54.2483,-41.90952 82.88205,-60.62567 0.46746,-0.20326 0.93459,-0.59557 1.47995,-0.49679 z"
     id="path14"
     transform="translate(-5,-10)" />
  <path
     style="fill:#ffffff;stroke-width:2.66338"
     d="m 432.24761,113.08175 c -8.22697,1.69587 -16.34621,4.56271 -24.33454,6.84571 -0.45219,46.63058 1.0751,93.45514 -1.48515,139.96783 -1.41293,14.1199 -15.22438,20.79891 -24.83912,29.08649 -29.90394,23.60215 -61.74986,45.02917 -90.79416,69.55214 0.4238,2.87177 6.20375,-0.73402 8.28006,-0.57494 44.48688,-12.45514 89.3132,-23.9416 133.20932,-38.34315 7.32365,-4.69513 13.65874,-12.55918 11.45415,-21.78554 0.17848,-58.98662 0.55319,-118.01167 0.60909,-176.97429 -3.48757,-3.096 -6.72315,-8.33505 -12.09965,-7.77425 z"
     id="path15"
     transform="translate(-5,-10)" />
  <path
     style="fill:#ffffff;stroke-width:2.66338"
     d="m 437.69141,329.37722 c -31.27719,11.20153 -63.96721,18.62357 -95.69696,28.20736 -2.17346,9.31144 -1.04894,16.01068 10.09171,12.87348 26.31063,-0.61767 52.79895,1.28331 79.00663,-1.19519 10.33336,-2.6064 13.96025,-13.96066 13.21445,-23.52264 -0.0943,-6.46969 0.51678,-13.45833 -0.30331,-19.57259 -2.10417,1.06986 -4.20835,2.13972 -6.31252,3.20958 z"
     id="path16"
     transform="translate(-5,-10)" />
  <path
     style="fill:#c8c4b7;stroke-width:2.66338"
     d="m 454.52219,160.8457 c 0,66.5203 0,133.04061 0,199.56091 -4.67953,10.39132 -14.0154,22.01139 -26.69071,19.61512 -28.79939,0.39415 -57.87708,0.13029 -86.50287,0.93764 -1.40688,9.37017 -0.40603,16.77638 10.9032,13.47035 36.1972,-0.56537 72.51335,1.17847 108.64192,-1.02738 8.09019,-1.87937 4.57385,-12.90099 5.78452,-18.73468 0.37151,-67.43844 0.91955,-134.90674 -0.37453,-202.33354 0.79071,-5.36357 -2.23951,-10.11368 -7.78987,-10.81738 -1.19685,0.0375 -2.91867,-1.28805 -3.97166,-0.67104 z"
     id="path17"
     transform="translate(-5,-10)" />
  <path
     style="fill:#ffb380;stroke-width:2.66338"
     d="m 299.89538,369.20825 c -9.67562,2.83228 -19.65148,5.22466 -29.1437,8.32566 0.7198,20.62891 -1.48588,41.55711 1.30568,62.02239 2.2081,6.28173 9.40716,3.36842 12.86952,0.0598 5.38968,-2.66375 10.49343,-10.09964 17.05187,-8.72361 8.17747,2.80954 13.72675,12.3565 22.72195,12.5028 7.45096,-2.06196 3.86279,-12.04699 4.94441,-17.55645 -0.18288,-21.52478 0.0938,-43.45648 -0.78548,-64.71438 -9.65475,2.69459 -19.3095,5.38918 -28.96425,8.08377 z"
     id="path18"
     transform="translate(-5,-10)" />
</svg>
