<?xml version="1.0" encoding="UTF-8" standalone="no"?>
<svg
   version="1.1"
   x="0px"
   y="0px"
   viewBox="0 0 100 100"
   xml:space="preserve"
   id="svg3"
   sodipodi:docname="unknown.svg"
   width="512"
   height="512"
   inkscape:version="1.4 (e7c3feb100, 2024-10-09)"
   xmlns:inkscape="http://www.inkscape.org/namespaces/inkscape"
   xmlns:sodipodi="http://sodipodi.sourceforge.net/DTD/sodipodi-0.dtd"
   xmlns="http://www.w3.org/2000/svg"
   xmlns:svg="http://www.w3.org/2000/svg"
   xmlns:i="http://ns.adobe.com/AdobeIllustrator/10.0/"><defs
     id="defs3" /><sodipodi:namedview
     id="namedview3"
     pagecolor="#ffffff"
     bordercolor="#000000"
     borderopacity="0.25"
     inkscape:showpageshadow="2"
     inkscape:pageopacity="0.0"
     inkscape:pagecheckerboard="0"
     inkscape:deskcolor="#d1d1d1"
     inkscape:zoom="6.488"
     inkscape:cx="49.861282"
     inkscape:cy="62.5"
     inkscape:window-width="1920"
     inkscape:window-height="1043"
     inkscape:window-x="0"
     inkscape:window-y="0"
     inkscape:window-maximized="1"
     inkscape:current-layer="svg3" /><switch
     id="switch2"><foreignObject
       requiredExtensions="http://ns.adobe.com/AdobeIllustrator/10.0/"
       x="0"
       y="0"
       width="1"
       height="1" /><g
       i:extraneous="self"
       id="g2"><g
         id="g1"><circle
           cx="50"
           cy="14.6"
           r="12.1"
           id="circle1" /><path
           d="M 57.9,29.9 H 42.1 C 37.1,29.9 33,34 33,39 v 16.8 c 0,2.5 1.7,4.7 4.1,5.3 l 0.9,0.2 c 1.2,0.3 2,1.3 2,2.5 v 29.1 c 0,2.5 2,4.6 4.6,4.6 h 10.9 c 2.5,0 4.6,-2 4.6,-4.6 v -29 c 0,-1.2 0.8,-2.2 2,-2.5 L 63,61.2 c 2.4,-0.6 4.1,-2.8 4.1,-5.3 V 39 C 67,34 62.9,29.9 57.9,29.9 Z m -8.1,35 c -1.7,0 -3.1,-1.4 -3.1,-3.1 0,-1.7 1.4,-3.1 3.1,-3.1 1.7,0 3.1,1.4 3.1,3.1 -0.1,1.7 -1.4,3.1 -3.1,3.1 z m 3.7,-12.5 c -1.4,1.2 -1.4,1.8 -1.4,2 v 1.1 c 0,0.6 -0.5,1 -1,1 h -2.8 c -0.6,0 -1,-0.5 -1,-1 v -1.1 c 0,-2.1 1.1,-4 3.2,-5.8 1.5,-1.3 3.2,-2.7 3.2,-4.1 0,-2.1 -1,-3 -3.5,-3 -3.8,0 -3.8,2.8 -3.8,2.9 V 45 c 0,0.6 -0.5,1 -1,1 h -2.8 c -0.6,0 -1,-0.5 -1,-1 v -0.5 c 0,-3.1 2.3,-7.8 8.7,-7.8 6.1,0 8.3,4.1 8.3,7.9 -0.1,3.8 -3.2,6.3 -5.1,7.8 z"
           id="path1" /></g></g></switch></svg>
